<svg width="39" height="10" viewBox="0 0 39 10" fill="none" xmlns="http://www.w3.org/2000/svg">
<path d="M6.14062 6.28711H7.26562C7.20703 6.82617 7.05273 7.30859 6.80273 7.73438C6.55273 8.16016 6.19922 8.49805 5.74219 8.74805C5.28516 8.99414 4.71484 9.11719 4.03125 9.11719C3.53125 9.11719 3.07617 9.02344 2.66602 8.83594C2.25977 8.64844 1.91016 8.38281 1.61719 8.03906C1.32422 7.69141 1.09766 7.27539 0.9375 6.79102C0.78125 6.30273 0.703125 5.75977 0.703125 5.16211V4.3125C0.703125 3.71484 0.78125 3.17383 0.9375 2.68945C1.09766 2.20117 1.32617 1.7832 1.62305 1.43555C1.92383 1.08789 2.28516 0.820312 2.70703 0.632812C3.12891 0.445312 3.60352 0.351562 4.13086 0.351562C4.77539 0.351562 5.32031 0.472656 5.76562 0.714844C6.21094 0.957031 6.55664 1.29297 6.80273 1.72266C7.05273 2.14844 7.20703 2.64258 7.26562 3.20508H6.14062C6.08594 2.80664 5.98438 2.46484 5.83594 2.17969C5.6875 1.89063 5.47656 1.66797 5.20312 1.51172C4.92969 1.35547 4.57227 1.27734 4.13086 1.27734C3.75195 1.27734 3.41797 1.34961 3.12891 1.49414C2.84375 1.63867 2.60352 1.84375 2.4082 2.10938C2.2168 2.375 2.07227 2.69336 1.97461 3.06445C1.87695 3.43555 1.82812 3.84766 1.82812 4.30078V5.16211C1.82812 5.58008 1.87109 5.97266 1.95703 6.33984C2.04688 6.70703 2.18164 7.0293 2.36133 7.30664C2.54102 7.58398 2.76953 7.80273 3.04688 7.96289C3.32422 8.11914 3.65234 8.19727 4.03125 8.19727C4.51172 8.19727 4.89453 8.12109 5.17969 7.96875C5.46484 7.81641 5.67969 7.59766 5.82422 7.3125C5.97266 7.02734 6.07812 6.68555 6.14062 6.28711ZM9.97272 3.65625V9H8.88873V2.66016H9.94342L9.97272 3.65625ZM11.9532 2.625L11.9473 3.63281C11.8575 3.61328 11.7715 3.60156 11.6895 3.59766C11.6114 3.58984 11.5215 3.58594 11.42 3.58594C11.17 3.58594 10.9493 3.625 10.7579 3.70312C10.5665 3.78125 10.4044 3.89062 10.2715 4.03125C10.1387 4.17188 10.0333 4.33984 9.95514 4.53516C9.88092 4.72656 9.83209 4.9375 9.80865 5.16797L9.50397 5.34375C9.50397 4.96094 9.54108 4.60156 9.61529 4.26562C9.69342 3.92969 9.81256 3.63281 9.97272 3.375C10.1329 3.11328 10.336 2.91016 10.5821 2.76562C10.8321 2.61719 11.129 2.54297 11.4727 2.54297C11.5508 2.54297 11.6407 2.55273 11.7422 2.57227C11.8438 2.58789 11.9141 2.60547 11.9532 2.625ZM15.715 9.11719C15.2736 9.11719 14.8732 9.04297 14.5138 8.89453C14.1583 8.74219 13.8517 8.5293 13.5939 8.25586C13.34 7.98242 13.1447 7.6582 13.0079 7.2832C12.8712 6.9082 12.8029 6.49805 12.8029 6.05273V5.80664C12.8029 5.29102 12.879 4.83203 13.0314 4.42969C13.1837 4.02344 13.3907 3.67969 13.6525 3.39844C13.9142 3.11719 14.2111 2.9043 14.5431 2.75977C14.8751 2.61523 15.2189 2.54297 15.5743 2.54297C16.0275 2.54297 16.4181 2.62109 16.7462 2.77734C17.0782 2.93359 17.3497 3.15234 17.5607 3.43359C17.7716 3.71094 17.9279 4.03906 18.0294 4.41797C18.131 4.79297 18.1818 5.20312 18.1818 5.64844V6.13477H13.4474V5.25H17.0978V5.16797C17.0822 4.88672 17.0236 4.61328 16.922 4.34766C16.8243 4.08203 16.6681 3.86328 16.4532 3.69141C16.2384 3.51953 15.9454 3.43359 15.5743 3.43359C15.3282 3.43359 15.1017 3.48633 14.8947 3.5918C14.6876 3.69336 14.5099 3.8457 14.3614 4.04883C14.213 4.25195 14.0978 4.5 14.0157 4.79297C13.9337 5.08594 13.8927 5.42383 13.8927 5.80664V6.05273C13.8927 6.35352 13.9337 6.63672 14.0157 6.90234C14.1017 7.16406 14.2247 7.39453 14.3849 7.59375C14.5489 7.79297 14.7462 7.94922 14.9767 8.0625C15.2111 8.17578 15.4767 8.23242 15.7736 8.23242C16.1564 8.23242 16.4806 8.1543 16.7462 7.99805C17.0118 7.8418 17.2443 7.63281 17.4435 7.37109L18.0997 7.89258C17.963 8.09961 17.7892 8.29688 17.5782 8.48438C17.3673 8.67188 17.1075 8.82422 16.7989 8.94141C16.4943 9.05859 16.1329 9.11719 15.715 9.11719ZM23.6896 7.76953V0H24.7795V9H23.7834L23.6896 7.76953ZM19.424 5.90039V5.77734C19.424 5.29297 19.4826 4.85352 19.5998 4.45898C19.7209 4.06055 19.8908 3.71875 20.1096 3.43359C20.3322 3.14844 20.5959 2.92969 20.9006 2.77734C21.2092 2.62109 21.5529 2.54297 21.9318 2.54297C22.3303 2.54297 22.6779 2.61328 22.9748 2.75391C23.2756 2.89062 23.5295 3.0918 23.7365 3.35742C23.9474 3.61914 24.1135 3.93555 24.2346 4.30664C24.3556 4.67773 24.4396 5.09766 24.4865 5.56641V6.10547C24.4435 6.57031 24.3596 6.98828 24.2346 7.35938C24.1135 7.73047 23.9474 8.04688 23.7365 8.30859C23.5295 8.57031 23.2756 8.77148 22.9748 8.91211C22.674 9.04883 22.3224 9.11719 21.9201 9.11719C21.549 9.11719 21.2092 9.03711 20.9006 8.87695C20.5959 8.7168 20.3322 8.49219 20.1096 8.20312C19.8908 7.91406 19.7209 7.57422 19.5998 7.18359C19.4826 6.78906 19.424 6.36133 19.424 5.90039ZM20.5139 5.77734V5.90039C20.5139 6.2168 20.5451 6.51367 20.6076 6.79102C20.674 7.06836 20.7756 7.3125 20.9123 7.52344C21.049 7.73438 21.2228 7.90039 21.4338 8.02148C21.6447 8.13867 21.8967 8.19727 22.1896 8.19727C22.549 8.19727 22.8439 8.12109 23.0744 7.96875C23.3088 7.81641 23.4963 7.61523 23.6369 7.36523C23.7775 7.11523 23.8869 6.84375 23.965 6.55078V5.13867C23.9181 4.92383 23.8498 4.7168 23.7599 4.51758C23.674 4.31445 23.5607 4.13477 23.4201 3.97852C23.2834 3.81836 23.1135 3.69141 22.9103 3.59766C22.7111 3.50391 22.4748 3.45703 22.2014 3.45703C21.9045 3.45703 21.6486 3.51953 21.4338 3.64453C21.2228 3.76562 21.049 3.93359 20.9123 4.14844C20.7756 4.35938 20.674 4.60547 20.6076 4.88672C20.5451 5.16406 20.5139 5.46094 20.5139 5.77734ZM27.8909 2.66016V9H26.801V2.66016H27.8909ZM26.719 0.978516C26.719 0.802734 26.7717 0.654297 26.8772 0.533203C26.9866 0.412109 27.1467 0.351562 27.3577 0.351562C27.5647 0.351562 27.7229 0.412109 27.8323 0.533203C27.9456 0.654297 28.0022 0.802734 28.0022 0.978516C28.0022 1.14648 27.9456 1.29102 27.8323 1.41211C27.7229 1.5293 27.5647 1.58789 27.3577 1.58789C27.1467 1.58789 26.9866 1.5293 26.8772 1.41211C26.7717 1.29102 26.719 1.14648 26.719 0.978516ZM32.5316 2.66016V3.49219H29.1038V2.66016H32.5316ZM30.264 1.11914H31.348V7.42969C31.348 7.64453 31.3812 7.80664 31.4476 7.91602C31.514 8.02539 31.5999 8.09766 31.7054 8.13281C31.8108 8.16797 31.9241 8.18555 32.0452 8.18555C32.1351 8.18555 32.2288 8.17773 32.3265 8.16211C32.428 8.14258 32.5042 8.12695 32.555 8.11523L32.5608 9C32.4749 9.02734 32.3616 9.05273 32.221 9.07617C32.0843 9.10352 31.9183 9.11719 31.723 9.11719C31.4573 9.11719 31.2132 9.06445 30.9905 8.95898C30.7679 8.85352 30.5901 8.67773 30.4573 8.43164C30.3284 8.18164 30.264 7.8457 30.264 7.42383V1.11914ZM37.7406 7.31836C37.7406 7.16211 37.7054 7.01758 37.6351 6.88477C37.5687 6.74805 37.43 6.625 37.2191 6.51562C37.0121 6.40234 36.6996 6.30469 36.2816 6.22266C35.93 6.14844 35.6117 6.06055 35.3265 5.95898C35.0453 5.85742 34.805 5.73438 34.6058 5.58984C34.4105 5.44531 34.2601 5.27539 34.1547 5.08008C34.0492 4.88477 33.9965 4.65625 33.9965 4.39453C33.9965 4.14453 34.0511 3.9082 34.1605 3.68555C34.2738 3.46289 34.432 3.26562 34.6351 3.09375C34.8422 2.92188 35.0902 2.78711 35.3793 2.68945C35.6683 2.5918 35.9906 2.54297 36.3461 2.54297C36.8539 2.54297 37.2875 2.63281 37.6468 2.8125C38.0062 2.99219 38.2816 3.23242 38.473 3.5332C38.6644 3.83008 38.7601 4.16016 38.7601 4.52344H37.6761C37.6761 4.34766 37.6234 4.17773 37.5179 4.01367C37.4164 3.8457 37.266 3.70703 37.0668 3.59766C36.8715 3.48828 36.6312 3.43359 36.3461 3.43359C36.0453 3.43359 35.8011 3.48047 35.6136 3.57422C35.43 3.66406 35.2953 3.7793 35.2093 3.91992C35.1273 4.06055 35.0863 4.20898 35.0863 4.36523C35.0863 4.48242 35.1058 4.58789 35.1449 4.68164C35.1879 4.77148 35.2621 4.85547 35.3675 4.93359C35.473 5.00781 35.6215 5.07812 35.8129 5.14453C36.0043 5.21094 36.2484 5.27734 36.5453 5.34375C37.0648 5.46094 37.4925 5.60156 37.8285 5.76562C38.1644 5.92969 38.4144 6.13086 38.5785 6.36914C38.7425 6.60742 38.8246 6.89648 38.8246 7.23633C38.8246 7.51367 38.766 7.76758 38.6488 7.99805C38.5355 8.22852 38.3695 8.42773 38.1508 8.5957C37.9359 8.75977 37.6781 8.88867 37.3773 8.98242C37.0804 9.07227 36.7465 9.11719 36.3754 9.11719C35.8168 9.11719 35.3441 9.01758 34.9574 8.81836C34.5707 8.61914 34.2777 8.36133 34.0785 8.04492C33.8793 7.72852 33.7797 7.39453 33.7797 7.04297H34.8695C34.8851 7.33984 34.9711 7.57617 35.1273 7.75195C35.2836 7.92383 35.475 8.04688 35.7015 8.12109C35.9281 8.19141 36.1527 8.22656 36.3754 8.22656C36.6722 8.22656 36.9203 8.1875 37.1195 8.10938C37.3226 8.03125 37.4769 7.92383 37.5824 7.78711C37.6879 7.65039 37.7406 7.49414 37.7406 7.31836Z" fill="white"/>
</svg>
